<?xml version="1.0" encoding="UTF-8" standalone="no"?>
<svg
   xmlns="http://www.w3.org/2000/svg"
   viewBox="19 19 106 106"
   height="144px"
   width="144px"
   y="0px"
   x="0px">
  <path d="m 39.2,46.14 c -2.12,2.24 -4.09,4.48 -4.71,8.51 0.62,0.86 3.72,3.05 6.22,3.07 h 5.42 V 82.16 H 32.06 c 1.16,5.12 2.66,8.18 5.34,12.22 h 35.08 c 0.35,0 0.59,-0.1 0.59,-0.37 V 82.93 c 0,-0.32 -0.24,-0.38 -0.59,-0.38 h -9.15 v -7.02 h 9.89 c 0.91,0 4.83,0.26 6.09,5.28 0.39,1.54 1.25,6.56 1.84,8.16 0.59,1.81 2.99,5.41 5.53,5.41 h 18.72 c 4.6,-6.72 6.1,-10.25 7.8,-19.88 h -7 c -0.3,0 -0.5,0.26 -0.5,0.65 v 1.8 c 0,4.24 -2.4,5.17 -4.5,5.4 -2.04,0.23 -4.25,-0.83 -4.47,-2.05 -1.18,-6.63 -3.16,-8.05 -6.26,-10.49 3.83,-2.45 7.88,-6.05 7.88,-10.87 0,-5.21 -3.61,-8.49 -6.03,-10.1 -3.42,-2.25 -7.2,-2.7 -8.22,-2.7 z m 24.14,11.84 h 12.91 c 0.67,0 4.71,0.76 4.71,3.79 0,2.51 -3.1,3.41 -5.66,3.41 H 63.34 Z"/>
</svg>
