<?xml version="1.0" encoding="UTF-8" standalone="no"?>
<svg
   xmlns:dc="http://purl.org/dc/elements/1.1/"
   xmlns:cc="http://creativecommons.org/ns#"
   xmlns:rdf="http://www.w3.org/1999/02/22-rdf-syntax-ns#"
   xmlns:svg="http://www.w3.org/2000/svg"
   xmlns="http://www.w3.org/2000/svg"
   xmlns:sodipodi="http://sodipodi.sourceforge.net/DTD/sodipodi-0.dtd"
   xmlns:inkscape="http://www.inkscape.org/namespaces/inkscape"
   viewBox="0 0 100 100"
   height="100px"
   width="100px"
   y="0px"
   x="0px"
   version="1.1"
   id="svg4"
   sodipodi:docname="Rust-alt.svg"
   inkscape:version="0.92.4 5da689c313, 2019-01-14">
  <metadata
     id="metadata10">
    <rdf:RDF>
      <cc:Work
         rdf:about="">
        <dc:format>image/svg+xml</dc:format>
        <dc:type
           rdf:resource="http://purl.org/dc/dcmitype/StillImage" />
      </cc:Work>
    </rdf:RDF>
  </metadata>
  <defs
     id="defs8" />
  <sodipodi:namedview
     pagecolor="#ffffff"
     bordercolor="#666666"
     borderopacity="1"
     objecttolerance="10"
     gridtolerance="10"
     guidetolerance="10"
     inkscape:pageopacity="0"
     inkscape:pageshadow="2"
     inkscape:window-width="1600"
     inkscape:window-height="826"
     id="namedview6"
     showgrid="false"
     inkscape:zoom="5.657"
     inkscape:cx="30.8"
     inkscape:cy="54.58"
     inkscape:window-x="0"
     inkscape:window-y="0"
     inkscape:window-maximized="1"
     inkscape:current-layer="svg4"
     showguides="false" />
  <path
     d="m 50,0.5801 c -0.52,0 -0.84,0.1795 -1.11,0.6189 L 46.27,5.41 44.96,5.529 41.57,1.92 c -0.35,-0.38 -0.7,-0.491 -1.21,-0.391 -0.51,0.1 -0.79,0.34 -0.97,0.83 L 37.64,6.99 36.38,7.369 32.35,4.49 c -0.42,-0.3 -0.78,-0.34 -1.26,-0.15 -0.48,0.2 -0.71,0.49 -0.79,1 l -0.81,4.89 -1.16,0.62 -4.52,-2.039 c -0.47,-0.22 -0.83,-0.192 -1.26,0.1 -0.44,0.29 -0.6,0.618 -0.59,1.129 l 0.16,4.95 -1.02,0.84 -4.82,-1.12 c -0.5,-0.12 -0.86,0 -1.22,0.35 -0.37,0.36 -0.47,0.72 -0.35,1.22 l 1.12,4.82 -0.84,1.02 -4.95,-0.16 c -0.513,0 -0.84,0.15 -1.13,0.59 -0.29,0.43 -0.318,0.79 -0.1,1.26 l 2.04,4.52 -0.62,1.16 -4.891,0.81 c -0.51,0.1 -0.8,0.31 -1,0.79 -0.19,0.48 -0.152,0.84 0.148,1.26 l 2.879,4.03 -0.379,1.26 -4.631,1.75 c -0.49,0.18 -0.73,0.46 -0.83,0.97 -0.1,0.51 0.01,0.86 0.393,1.21 l 3.61,3.39 -0.119,1.31 -4.211,2.62 C 0.7596,49.16 0.5801,49.48 0.5801,50 c 0,0.52 0.1795,0.84 0.6189,1.11 l 4.211,2.62 0.119,1.31 -3.609,3.39 c -0.38,0.35 -0.491,0.7 -0.391,1.21 0.1,0.51 0.34,0.79 0.83,0.97 l 4.631,1.75 0.379,1.26 -2.879,4.03 c -0.3,0.42 -0.34,0.78 -0.15,1.26 0.2,0.48 0.49,0.71 1,0.79 l 4.89,0.81 0.62,1.16 -2.039,4.52 c -0.22,0.47 -0.192,0.83 0.1,1.26 0.29,0.44 0.618,0.6 1.129,0.59 l 4.95,-0.16 0.84,1.02 -1.12,4.82 c -0.12,0.5 0,0.86 0.35,1.22 0.36,0.37 0.72,0.47 1.22,0.35 l 4.82,-1.12 1.02,0.84 -0.16,4.95 c 0,0.51 0.15,0.84 0.59,1.13 0.43,0.29 0.79,0.32 1.26,0.1 l 4.52,-2.04 1.16,0.62 0.81,4.89 c 0.1,0.51 0.31,0.8 0.79,1 0.48,0.19 0.84,0.15 1.26,-0.15 l 4.03,-2.88 1.26,0.38 1.75,4.63 c 0.18,0.49 0.46,0.73 0.97,0.83 0.51,0.1 0.86,0 1.21,-0.39 l 3.39,-3.61 1.31,0.12 2.62,4.21 c 0.27,0.44 0.59,0.62 1.11,0.62 0.52,0 0.84,-0.18 1.11,-0.62 l 2.62,-4.21 1.31,-0.12 3.39,3.61 c 0.35,0.38 0.7,0.49 1.21,0.39 0.51,-0.1 0.79,-0.34 0.97,-0.83 l 1.75,-4.63 1.26,-0.38 4.03,2.88 c 0.42,0.3 0.78,0.34 1.26,0.15 0.48,-0.2 0.71,-0.49 0.79,-1 l 0.81,-4.89 1.16,-0.62 4.52,2.04 c 0.47,0.22 0.83,0.19 1.26,-0.1 0.44,-0.29 0.6,-0.62 0.59,-1.13 l -0.16,-4.95 1.02,-0.84 4.82,1.12 c 0.5,0.12 0.86,0 1.22,-0.35 0.37,-0.36 0.47,-0.72 0.35,-1.22 l -1.12,-4.82 0.84,-1.02 4.95,0.16 c 0.51,0 0.84,-0.15 1.13,-0.59 0.29,-0.43 0.32,-0.79 0.1,-1.26 l -2.04,-4.52 0.62,-1.16 4.89,-0.81 c 0.51,-0.1 0.8,-0.31 1,-0.79 0.19,-0.48 0.15,-0.84 -0.15,-1.26 l -2.88,-4.03 0.38,-1.26 4.63,-1.75 c 0.49,-0.18 0.73,-0.46 0.83,-0.97 0.1,-0.51 0,-0.86 -0.39,-1.21 l -3.61,-3.39 0.12,-1.31 4.21,-2.62 c 0.44,-0.27 0.62,-0.59 0.62,-1.11 0,-0.52 -0.18,-0.84 -0.62,-1.11 l -4.21,-2.62 -0.12,-1.31 3.61,-3.39 c 0.38,-0.35 0.49,-0.7 0.39,-1.21 -0.1,-0.51 -0.34,-0.79 -0.83,-0.97 l -4.63,-1.75 -0.38,-1.26 2.88,-4.03 c 0.3,-0.42 0.34,-0.78 0.15,-1.26 -0.2,-0.48 -0.49,-0.71 -1,-0.79 l -4.89,-0.81 -0.62,-1.16 2.04,-4.52 c 0.22,-0.47 0.19,-0.83 -0.1,-1.26 -0.29,-0.44 -0.62,-0.6 -1.13,-0.59 l -4.95,0.16 -0.84,-1.02 1.12,-4.82 c 0.12,-0.5 0,-0.86 -0.35,-1.22 -0.36,-0.37 -0.72,-0.47 -1.22,-0.35 l -4.82,1.12 -1.02,-0.84 0.16,-4.95 C 78.05,9.527 77.89,9.2 77.45,8.91 77.02,8.62 76.66,8.591 76.19,8.811 L 71.67,10.85 70.51,10.23 69.7,5.34 C 69.62,4.83 69.39,4.54 68.91,4.34 68.43,4.15 68.07,4.19 67.65,4.49 L 63.62,7.369 62.36,6.99 60.61,2.359 C 60.43,1.869 60.15,1.629 59.64,1.529 59.13,1.429 58.78,1.54 58.43,1.92 L 55.04,5.529 53.73,5.41 51.11,1.199 C 50.84,0.7596 50.52,0.5801 50,0.5801 Z M 50,13.87 c 2.31,0 4.6,0.24 6.72,0.67 10.57,2.02 19.69,8.64 24.87,18.07 2.13,3.45 3.58,9 4.19,12.87 1.34,10.67 -2.14,21.39 -9.5,29.23 l -9.26,-1.42 h 0.1 L 83.59,48.75 59.22,17.64 18.37,32.61 c 5.18,-9.43 14.3,-16.05 24.87,-18.07 2.18,-0.47 4.5,-0.68 6.8,-0.67 z M 53.83,25.02 74.94,45.92 61.59,72.46 32.22,67.96 27.43,38.64 Z M 22.52,41.18 v 0.1 l 1.2,33.46 C 16.32,66.87 12.84,56.15 14.18,45.48 Z m 10.6,32.24 h 0.1 l 32.2,9.19 c -9.73,4.59 -21.01,4.59 -30.74,0 z"
     id="path2"
     inkscape:connector-curvature="0"
     sodipodi:nodetypes="sccccscccccccccccccccccccccccccccccsccccsccccscccccccccccccccccccccccccccccsccccsccccscccccccccccccccccccccccccccccsccccsccccscccccccccccccccccccccccccccccsccccsccccccccccccccccccccccccccccc" />
</svg>
